<svg id="visual" viewBox="0 0 1300 250" width="1300" height="250" xmlns="http://www.w3.org/2000/svg" xmlns:xlink="http://www.w3.org/1999/xlink" version="1.1"><path d="M0 98L31 100.5C62 103 124 108 185.8 113.2C247.7 118.3 309.3 123.7 371.2 115.5C433 107.3 495 85.7 557 74.7C619 63.7 681 63.3 743 77.5C805 91.7 867 120.3 928.8 122.2C990.7 124 1052.3 99 1114.2 88.5C1176 78 1238 82 1269 84L1300 86L1300 251L1269 251C1238 251 1176 251 1114.2 251C1052.3 251 990.7 251 928.8 251C867 251 805 251 743 251C681 251 619 251 557 251C495 251 433 251 371.2 251C309.3 251 247.7 251 185.8 251C124 251 62 251 31 251L0 251Z" fill="#d481a3" stroke-linecap="round" stroke-linejoin="miter"></path></svg>